<?xml version="1.0" encoding="utf-8"?>
<!-- Generator: Adobe Illustrator 26.2.1, SVG Export Plug-In . SVG Version: 6.00 Build 0)  -->
<svg version="1.1" id="Capa_1" xmlns="http://www.w3.org/2000/svg" xmlns:xlink="http://www.w3.org/1999/xlink" x="0px" y="0px"
	 viewBox="0 0 500 500" style="enable-background:new 0 0 500 500;" xml:space="preserve">
<style type="text/css">
	.st0{fill:#0099CD;stroke:#9D9D9C;stroke-width:0.5;stroke-miterlimit:10;}
	.st1{fill:#097297;}
	.st2{fill:#027EA8;}
	.st3{fill:#FFFFFF;}
	.st4{font-family:'OCRAExtended';}
	.st5{font-size:26.5954px;}
	.st6{fill:none;}
	.st7{font-size:104px;}
</style>
<path class="st0" d="M489.18,307.58c1.13,2.52,1.13,5.45,0,7.97l-22.33,49.88l-21.8,48.68c-1.42,3.17-4.4,5.19-7.67,5.19h-85.78
	c-3.27,0-6.25-2.02-7.67-5.19l-19.47-43.49c-1.42-3.17-4.4-5.19-7.67-5.19H182.78c-3.27,0-6.25,2.02-7.67,5.19l-19.47,43.49
	c-1.42,3.17-4.4,5.19-7.67,5.19H62.19c-3.27,0-6.25-2.02-7.67-5.19l-21.8-48.68L10.4,315.55c-1.13-2.52-1.13-5.45,0-7.97
	l22.33-49.88l21.8-48.68c1.42-3.17,4.4-5.19,7.67-5.19h85.78c3.27,0,6.25,2.02,7.67,5.19c6.49,14.5,12.98,28.99,19.47,43.49
	c1.42,3.17,4.4,5.19,7.67,5.19H316.8c3.27,0,6.25-2.02,7.67-5.19l19.47-43.49c1.42-3.17,4.4-5.19,7.67-5.19h85.78
	c3.27,0,6.25,2.02,7.67,5.19l21.8,48.68L489.18,307.58z"/>
<polygon class="st1" points="456.74,303.47 447.17,323.12 428.05,323.12 418.48,303.47 428.05,283.81 447.17,283.81 "/>
<polygon class="st1" points="417.64,262.3 408.07,281.95 388.95,281.95 379.38,262.3 388.95,242.65 408.07,242.65 "/>
<polygon class="st1" points="417.64,344.64 408.07,364.29 388.95,364.29 379.38,344.64 388.95,324.98 408.07,324.98 "/>
<polygon class="st1" points="113.72,341.67 113.72,361.91 86.13,361.91 86.13,341.76 86.05,341.67 99.86,325.67 113.69,341.67 "/>
<polygon class="st1" points="131.59,286.8 148.38,286.8 148.38,320.04 131.66,320.04 131.59,320.14 118.31,303.49 131.59,286.84 "/>
<polygon class="st1" points="68.18,318.02 51.38,318.02 51.38,284.78 68.1,284.78 68.18,284.68 81.46,301.33 68.18,317.98 "/>
<polygon class="st1" points="86.05,265.26 86.05,245.02 113.64,245.02 113.64,265.17 113.72,265.26 99.9,281.26 86.08,265.26 "/>
<path class="st1" d="M262.26,326.49c0,5.2-1.96,9.89-5.12,13.3c-3.15,3.41-7.53,5.5-12.35,5.5c-9.64,0-17.45-8.41-17.45-18.8
	c0-5.2,1.96-9.89,5.11-13.3c3.16-3.41,7.53-5.52,12.35-5.52c4.81,0,9.2,2.11,12.35,5.52C260.3,316.59,262.26,321.28,262.26,326.49z"
	/>
<rect x="195.32" y="274.36" class="st1" width="30.94" height="15.56"/>
<rect x="265.65" y="276.97" class="st1" width="30.94" height="15.56"/>
<polygon class="st1" points="296.79,293.27 289.13,285.02 296.6,276.97 304.26,285.22 "/>
<polygon class="st1" points="379.38,301.36 369.82,321 350.69,321 341.13,301.36 350.69,281.7 369.82,281.7 "/>
<polygon class="st2" points="453.83,301.36 444.27,321 425.14,321 415.58,301.36 425.14,281.7 444.27,281.7 "/>
<polygon class="st2" points="414.73,260.19 405.17,279.84 386.04,279.84 376.48,260.19 386.04,240.53 405.17,240.53 "/>
<polygon class="st2" points="414.73,342.52 405.17,362.17 386.04,362.17 376.48,342.52 386.04,322.87 405.17,322.87 "/>
<polygon class="st2" points="376.48,301.36 366.92,321 347.79,321 338.23,301.36 347.79,281.7 366.92,281.7 "/>
<polygon class="st2" points="111.48,339.56 111.48,359.8 83.89,359.8 83.89,339.65 83.81,339.56 97.63,323.55 111.45,339.56 "/>
<polygon class="st2" points="129.35,284.68 146.15,284.68 146.15,317.93 129.43,317.93 129.35,318.02 116.07,301.38 129.35,284.72 
	"/>
<polygon class="st2" points="65.94,315.91 49.15,315.91 49.15,282.66 65.87,282.66 65.94,282.57 79.22,299.21 65.94,315.87 "/>
<polygon class="st2" points="83.81,263.15 83.81,242.91 111.4,242.91 111.4,263.06 111.48,263.15 97.67,279.15 83.85,263.15 "/>
<rect x="195.5" y="271.81" class="st2" width="30.94" height="15.56"/>
<rect x="265.83" y="274.42" class="st2" width="30.94" height="15.56"/>
<polygon class="st2" points="296.97,290.72 289.31,282.47 296.78,274.42 304.44,282.67 "/>
<path class="st2" d="M259.27,323.49c0,5.2-1.96,9.89-5.12,13.3c-3.15,3.41-7.53,5.5-12.35,5.5c-9.64,0-17.45-8.41-17.45-18.8
	c0-5.2,1.96-9.89,5.11-13.3c3.16-3.41,7.53-5.52,12.35-5.52c4.81,0,9.2,2.11,12.35,5.52C257.31,313.6,259.27,318.29,259.27,323.49z"
	/>
<text transform="matrix(0.9284 0 0 1 234.2391 333.3969)" class="st3 st4 st5">G</text>
<text transform="matrix(0.5287 0 0 1 41.9724 121.4688)" class="st6 st4 st7">Fly Dev Games</text>
</svg>
